PathFileType	4	(X/Y/Z)	/Users/itak/Documents/Research/Walk-IL/dataset/trc/00088_00006.trc
DataRate	CameraRate	NumFrames	NumMarkers	Units	OrigDataRate	OrigDataStartFrame	OrigNumFrames
100.000000	100.000000	4	53	mm	100.000000	317	508
Frame#	Time	RPSI			LPSI			L3			STRN			T10			C7			CLAV			RBAK			LBAK			LSHO			LUPA			LAEL			LAOL			LWTS			LWPS			LFRA			LIFD			LHPS			LHTS			RSHO			RUPA			RAEL			RAOL			RWTS			RWPS			RFRA			RIFD			RHTS			RHPS			RBHD			LFHD			RFHD			LBHD			LHIP			RHIP			RASI			LASI			LKNE			LTHI			LANK			LTIP			LTOE			LMT1			LMT5			LHEE			RKNE			RTHI			RANK			RTIP			RTOE			RMT1			RMT5			RHEE			
		X1	Y1	Z1	X2	Y2	Z2	X3	Y3	Z3	X4	Y4	Z4	X5	Y5	Z5	X6	Y6	Z6	X7	Y7	Z7	X8	Y8	Z8	X9	Y9	Z9	X10	Y10	Z10	X11	Y11	Z11	X12	Y12	Z12	X13	Y13	Z13	X14	Y14	Z14	X15	Y15	Z15	X16	Y16	Z16	X17	Y17	Z17	X18	Y18	Z18	X19	Y19	Z19	X20	Y20	Z20	X21	Y21	Z21	X22	Y22	Z22	X23	Y23	Z23	X24	Y24	Z24	X25	Y25	Z25	X26	Y26	Z26	X27	Y27	Z27	X28	Y28	Z28	X29	Y29	Z29	X30	Y30	Z30	X31	Y31	Z31	X32	Y32	Z32	X33	Y33	Z33	X34	Y34	Z34	X35	Y35	Z35	X36	Y36	Z36	X37	Y37	Z37	X38	Y38	Z38	X39	Y39	Z39	X40	Y40	Z40	X41	Y41	Z41	X42	Y42	Z42	X43	Y43	Z43	X44	Y44	Z44	X45	Y45	Z45	X46	Y46	Z46	X47	Y47	Z47	X48	Y48	Z48	X49	Y49	Z49	X50	Y50	Z50	X51	Y51	Z51	X52	Y52	Z52	X53	Y53	Z53	

318	3.17	-322.5675354003906	1008.628356933594	340.5760192871094	-182.7654113769531	1006.570251464844	241.5668334960938	-242.7981567382812	1073.934448242188	283.5909729003906	-110.9081802368164	1268.7509765625	509.0599060058594	-232.6531677246094	1203.864379882812	268.1177368164062	-198.3903045654297	1470.509399414062	321.1327514648438	-123.2172164916992	1383.551879882812	482.2838134765625	-295.0207824707031	1333.869018554688	293.8518676757812	-118.3005599975586	1433.496704101562	255.2709503173828	-10.81477928161621	1440.350952148438	315.3239440917969	59.52840805053711	1319.865844726562	264.4312438964844	120.7359466552734	1115.410278320312	278.3965148925781	19.30357360839844	1081.182495117188	264.52294921875	148.3878173828125	896.038818359375	419.9512329101562	173.1877288818359	876.005615234375	341.5538635253906	154.3110656738281	1012.586181640625	305.0520935058594	172.0205993652344	719.5032958984375	473.1150817871094	198.3603973388672	805.1301879882812	385.0971374511719	176.4407958984375	822.6236572265625	450.4532470703125	-329.6707458496094	1433.772583007812	450.57080078125	-395.7784118652344	1367.896484375	461.3553161621094	-453.9643249511719	1111.205200195312	431.4397888183594	-359.3653564453125	1080.970458984375	415.8806457519531	-387.4254760742188	857.1401977539062	556.4730224609375	-457.9519348144531	844.0008544921875	505.9622192382812	-462.7836608886719	1030.779663085938	445.7168884277344	-380.4682922363281	668.507080078125	564.2880249023438	-385.0347290039062	756.9132080078125	582.365234375	-452.6347045898438	755.7089233398438	545.4019775390625	-242.575439453125	1634.152221679688	378.6250305175781	-85.20623016357422	1685.030395507812	527.2711181640625	-208.3836669921875	1667.7216796875	543.7314453125	-109.6391830444336	1660.401245117188	351.8260192871094	-47.4148063659668	948.2680053710938	277.0359802246094	-349.7027893066406	939.7883911132812	443.5865783691406	-261.6767883300781	965.4111938476562	533.49755859375	-31.44384384155273	956.1521606445312	399.8635559082031	-85.87261199951172	484.0782775878906	341.4918823242188	-60.71250534057617	626.2139892578125	306.3506164550781	-186.6139984130859	47.91793823242188	179.5149688720703	-128.5919494628906	254.589599609375	247.2664642333984	-82.83467102050781	39.55199813842773	356.5557250976562	-153.4972076416016	41.2851676940918	343.4795227050781	-98.68356323242188	34.55514907836914	244.19677734375	-278.2431640625	54.59416198730469	175.3574066162109	-211.3602142333984	522.4176635742188	607.47607421875	-295.0882263183594	778.7532958984375	548.346435546875	-129.8371887207031	39.27113342285156	630.8169555664062	-197.070068359375	399.8201293945312	616.6461181640625	-48.00519180297852	119.9246215820312	808.579833984375	-23.50075912475586	102.103271484375	745.8378295898438	-119.5400543212891	79.53110504150391	744.9660034179688	-87.10471343994141	36.74520492553711	572.436767578125	
319	3.18	-317.5689697265625	1007.049560546875	346.4694519042969	-177.21630859375	1005.235778808594	248.294921875	-237.6358337402344	1072.409301757812	289.9109802246094	-107.4514312744141	1267.140502929688	516.4440307617188	-227.5004425048828	1202.445922851562	274.5632019042969	-193.6755981445312	1469.077392578125	328.0639343261719	-119.6393127441406	1381.971801757812	489.7073364257812	-290.0599975585938	1332.412719726562	299.9503173828125	-113.1494522094727	1432.095458984375	262.6875305175781	-6.050190448760986	1438.902954101562	323.6493530273438	64.54680633544922	1318.274780273438	273.5126342773438	126.0168914794922	1114.029052734375	288.3080139160156	24.73566818237305	1079.58056640625	273.9084167480469	153.1410217285156	895.3096313476562	430.9092712402344	178.4449615478516	874.9913330078125	352.7405395507812	159.5509796142578	1011.357177734375	315.5746459960938	176.853759765625	719.1121215820312	485.0601196289062	203.5315704345703	804.3695068359375	396.8008117675781	181.2094116210938	822.1436767578125	461.9383239746094	-325.9855041503906	1432.058715820312	456.4638671875	-392.0674743652344	1366.089233398438	466.7966613769531	-449.7579650878906	1109.36376953125	436.320068359375	-355.2311401367188	1079.231201171875	421.0851135253906	-384.2862548828125	854.8389282226562	560.777587890625	-454.6467895507812	842.072998046875	509.8308715820312	-458.6482543945312	1028.995361328125	450.3176574707031	-377.7231140136719	666.1275634765625	567.6677856445312	-382.1890869140625	754.3897094726562	586.1738891601562	-449.5506896972656	753.5362548828125	548.9216918945312	-238.39501953125	1632.679809570312	385.5875854492188	-81.41455078125	1683.498413085938	534.6600952148438	-204.6660919189453	1666.330810546875	550.7846069335938	-105.34619140625	1658.774169921875	359.171875	-42.09355545043945	946.958251953125	284.5239868164062	-345.2516174316406	938.0213623046875	449.3320007324219	-257.9337463378906	963.7802734375	539.77783203125	-26.95838356018066	954.6568603515625	407.4392700195312	-83.03951263427734	482.7873229980469	346.3657531738281	-56.97805023193359	624.9189453125	312.3115539550781	-186.5234222412109	48.49952697753906	179.6544036865234	-127.0679321289062	254.1725006103516	249.5836334228516	-82.75711059570312	39.47275543212891	356.6134643554688	-153.3928680419922	41.25545501708984	343.5397644042969	-98.61367034912109	34.54275894165039	244.2817535400391	-278.0180053710938	55.6729850769043	175.4231567382812	-206.5277099609375	520.378173828125	611.5377197265625	-291.084228515625	776.45556640625	553.478271484375	-121.2867965698242	38.72807312011719	644.0967407226562	-191.6962738037109	398.6223754882812	622.4390258789062	-41.32414627075195	122.5790863037109	821.29833984375	-16.35547828674316	104.2545318603516	758.8497924804688	-112.1898345947266	80.77687835693359	757.6475830078125	-78.42897796630859	35.79038619995117	585.8740844726562	
320	3.19	-312.6576843261719	1005.539367675781	352.454345703125	-171.7207489013672	1003.924926757812	255.1655120849609	-232.4736328125	1070.9296875	296.3646545410156	-104.0736923217773	1265.546264648438	523.9512939453125	-222.3527679443359	1201.060302734375	281.1268920898438	-189.0466918945312	1467.677124023438	335.1082153320312	-116.1294174194336	1380.407958984375	497.2598876953125	-285.1319580078125	1330.975952148438	306.16015625	-108.0613327026367	1430.725830078125	270.2518310546875	-1.350046873092651	1437.471435546875	332.1190795898438	69.45501708984375	1316.687377929688	282.6939697265625	131.0540618896484	1112.619506835938	298.1571960449219	29.89142417907715	1078.003295898438	283.294189453125	157.6610565185547	894.4951171875	441.6874389648438	183.3688507080078	873.901611328125	363.7260437011719	164.5187530517578	1010.075866699219	325.9584350585938	181.4281921386719	718.62353515625	496.7695922851562	208.3821716308594	803.508056640625	408.2523803710938	185.7348327636719	821.5632934570312	473.1947937011719	-322.3726196289062	1430.361083984375	462.4590759277344	-388.3994750976562	1364.2763671875	472.3381958007812	-445.5621337890625	1107.494262695312	441.3721313476562	-351.0917053222656	1077.478637695312	426.4234313964844	-381.0693664550781	852.5406494140625	565.2266235351562	-451.2489318847656	840.1299438476562	513.915771484375	-454.504150390625	1027.193969726562	455.1030578613281	-374.8877868652344	663.7510375976562	571.1931762695312	-379.2167358398438	751.882080078125	590.1310424804688	-446.4068908691406	751.3716430664062	552.6345825195312	-234.3037567138672	1631.236938476562	392.6537475585938	-77.70891571044922	1682.016723632812	542.0957641601562	-201.0247802734375	1664.986206054688	557.9102783203125	-101.1608352661133	1657.17431640625	366.5810546875	-36.84483337402344	945.6347045898438	292.0880737304688	-340.8133239746094	936.343994140625	455.220947265625	-254.2349853515625	962.2046508789062	546.1494140625	-22.5061092376709	953.1627197265625	415.1197814941406	-80.19533538818359	481.5071716308594	351.4847412109375	-53.24235153198242	623.6140747070312	318.4619445800781	-186.3847045898438	49.21614074707031	179.8145141601562	-125.49609375	253.8219909667969	252.0226745605469	-82.67417144775391	39.38897705078125	356.68017578125	-153.2715606689453	41.2236442565918	343.6085510253906	-98.54607391357422	34.54974746704102	244.3775787353516	-277.7702026367188	56.94843292236328	175.5150146484375	-201.5227355957031	518.6801147460938	616.1858520507812	-286.8224792480469	774.4619750976562	559.0440673828125	-113.8042449951172	38.16268157958984	655.1791381835938	-186.4971313476562	397.4524230957031	628.3065185546875	-35.16373062133789	124.0125885009766	832.103515625	-9.881036758422852	105.4751358032227	769.8270874023438	-105.5761413574219	81.31533813476562	768.3477172851562	-70.8521728515625	34.99137115478516	597.0818481445312	
321	3.2	-307.8192138671875	1004.121337890625	358.5352172851562	-166.2665710449219	1002.663391113281	262.1839294433594	-227.3085174560547	1069.518432617188	302.9574890136719	-100.7711181640625	1263.994140625	531.5870361328125	-217.1971282958984	1199.722900390625	287.8116760253906	-184.494384765625	1466.325439453125	342.2655639648438	-112.6857376098633	1378.882446289062	504.9440307617188	-280.2320556640625	1329.5751953125	312.4814453125	-103.0283508300781	1429.412353515625	277.9619750976562	3.289273500442505	1436.076293945312	340.735107421875	74.26583099365234	1315.1298828125	291.9736022949219	135.8575439453125	1111.201416015625	307.9396667480469	34.78285598754883	1076.475219726562	292.6705322265625	161.9438171386719	893.6070556640625	452.2747192382812	187.9545745849609	872.7464599609375	374.499755859375	169.2215270996094	1008.759155273438	336.1973266601562	185.7237854003906	718.045654296875	508.2231140136719	212.8968658447266	802.5523681640625	419.4331970214844	190.0040130615234	820.8851318359375	484.2041931152344	-318.82177734375	1428.702026367188	468.5581359863281	-384.7736206054688	1362.479736328125	477.9685363769531	-441.3736877441406	1105.624755859375	446.5675048828125	-346.9571228027344	1075.74267578125	431.8760986328125	-377.7760009765625	850.2731323242188	569.8236694335938	-447.7622985839844	838.1980590820312	518.2001953125	-450.3519897460938	1025.400634765625	460.0461120605469	-371.9672241210938	661.41015625	574.8887329101562	-376.1289367675781	749.4380493164062	594.2506713867188	-443.1984252929688	749.2437744140625	556.5413208007812	-230.3043518066406	1629.841186523438	399.8202209472656	-74.08419799804688	1680.604370117188	549.579345703125	-197.4588775634766	1663.708862304688	565.104248046875	-97.08576965332031	1655.620483398438	374.0494689941406	-31.6638011932373	944.30859375	299.7326965332031	-336.3959045410156	934.78466796875	461.2416381835938	-250.5697021484375	960.7011108398438	552.6209106445312	-18.06240844726562	951.6959838867188	422.9176635742188	-77.33499145507812	480.2394409179688	356.8548889160156	-49.49655151367188	622.3208618164062	324.8062133789062	-186.1710357666016	50.08401107788086	179.993408203125	-123.867317199707	253.5608215332031	254.5804595947266	-82.58829498291016	39.30442810058594	356.7554626464844	-153.1323852539062	41.19468307495117	343.6815185546875	-98.47550964355469	34.5802116394043	244.4816436767578	-277.4848327636719	58.45512390136719	175.6276245117188	-196.4188079833984	517.3135375976562	621.4537353515625	-282.3357849121094	772.818115234375	565.0838623046875	-107.3626556396484	37.48124313354492	664.050537109375	-181.4689788818359	396.2669982910156	634.27490234375	-29.34673881530762	124.1111831665039	840.9584350585938	-3.940896034240723	105.6266250610352	778.7233276367188	-99.56993103027344	81.03803253173828	777.0731201171875	-64.36116027832031	34.2434196472168	606.03076171875	
